<svg xmlns="http://www.w3.org/2000/svg" viewBox="0 0 163 167">
  <g fill="none">
    <path fill="#FBBC05" d="M9.31580333,46.8144368 L37.130324,68.0843643 C35.5399212,72.9149456 34.6799342,78.0826812 34.6799342,83.4579999 C34.6799342,88.8333186 35.5399212,94.0010542 37.130324,98.8316354 L9.31580333,120.101563 C3.89093438,109.07233 0.848372137,96.6377234 0.848372137,83.4579999 C0.848372137,70.2782764 3.89093438,57.8436702 9.31580333,46.8144368 L9.31580333,46.8144368 Z"/>
    <path fill="#EA4335" d="M37.130324,68.0843643 L9.31580333,46.8144368 C22.7674714,19.4660182 50.8669077,0.75862593 83.5477461,0.75862593 C104.598496,0.75862593 123.393808,8.65265708 138.054152,21.4334694 L113.996152,45.4914691 C105.726215,38.7251567 95.2008397,34.590188 83.5477461,34.590188 C61.8578151,34.590188 43.5477529,48.5925016 37.130324,68.0843643 L37.130324,68.0843643 Z"/>
    <path fill="#34A853" d="M9.30461115,120.078799 L37.1077922,98.7630273 C43.5048061,118.290633 61.8323752,132.325812 83.5477461,132.325812 C106.478027,132.325812 123.769714,120.672718 127.904683,100.373781 L83.5477461,100.373781 L83.5477461,68.4217501 L160.608526,68.4217501 C161.736245,73.3085312 162.488058,78.5712187 162.488058,83.4579999 C162.488058,136.084874 124.897433,166.157374 83.5477461,166.157374 C50.8578411,166.157374 22.7518807,147.4396 9.30461115,120.078799 L9.30461115,120.078799 Z"/>
    <path fill="#4285F4" d="M137.450644,145.560969 L111.044936,125.11784 C119.678756,119.669034 125.68587,111.266135 127.904683,100.373781 L83.5477461,100.373781 L83.5477461,68.4217501 L160.608526,68.4217501 C161.736245,73.3085312 162.488058,78.5712187 162.488058,83.4579999 C162.488058,110.412278 152.627084,131.449972 137.450644,145.560969 L137.450644,145.560969 Z"/>
  </g>
</svg>
